# xmcd
#
# Track frame offsets: 
#        150
#        10235
#        19293
#        30490
#        39912
#        49991
#        60746
#        70422
#        82116
#        92600
#        101359
#        111288
#        120578
#        129257
#        140985
#        154184
#        165507
#        177181
#        186572
#        197069
#        207647
#        216710
#        227395
#        238449
#        249248
#        261494
#
# Disc length: 3627 seconds
#
# Revision: 0
# Processed by: cddbd v1.5.2PL0 Copyright (c) Steve Scherf et al.
# Submitted via: ExactAudioCopyFreeDBPlugin 1.0
#
DISCID=820e291a
DTITLE=Johnny Horton - Springtime in Alaska
DYEAR=2010
DGENRE=Country
TTITLE0=Honky Tonk Man
TTITLE1=I'm A One-Woman Man
TTITLE2=I'm Ready If You're Willing
TTITLE3=I'm Coming Home
TTITLE4=The Woman I Need
TTITLE5=I'll Do It Every Time
TTITLE6=Let's Take The Long Way Home
TTITLE7=Lover's Rock
TTITLE8=Honky Tonk Hardwood Floor
TTITLE9=The Wild One
TTITLE10=Wise To The Ways Of A Woman
TTITLE11=I Love You Baby
TTITLE12=All Grown Up
TTITLE13=When It's Springtime In Alaska
TTITLE14=Whispering Pines
TTITLE15=The Battle Of New Orleans
TTITLE16=Lost Highway
TTITLE17=The Golden Rocket
TTITLE18=The First Train Headin' South
TTITLE19=Johnny Reb
TTITLE20=Sal's Got A Sugar Lip
TTITLE21=Take Me Like I Am
TTITLE22=On The Banks Of The Beautiful Nile
TTITLE23=The Mansion You Stole
TTITLE24=The Train With The Rhumba Beat
TTITLE25=Big Wheels Rollin'
EXTD=
EXTT0=
EXTT1=
EXTT2=
EXTT3=
EXTT4=
EXTT5=
EXTT6=
EXTT7=
EXTT8=
EXTT9=
EXTT10=
EXTT11=
EXTT12=
EXTT13=
EXTT14=
EXTT15=
EXTT16=
EXTT17=
EXTT18=
EXTT19=
EXTT20=
EXTT21=
EXTT22=
EXTT23=
EXTT24=
EXTT25=
PLAYORDER=
